<?xml version="1.0" encoding="UTF-8" standalone="no"?>
<!DOCTYPE svg PUBLIC "-//W3C//DTD SVG 1.1//EN"
 "http://www.w3.org/Graphics/SVG/1.1/DTD/svg11.dtd">
<!-- Generated by graphviz version 5.0.0 (20220707.1540)
 -->
<!-- Title: dependencies Pages: 1 -->
<svg width="2462pt" height="247pt"
 viewBox="0.00 0.00 2462.00 246.80" xmlns="http://www.w3.org/2000/svg" xmlns:xlink="http://www.w3.org/1999/xlink">
<g id="graph0" class="graph" transform="scale(1 1) rotate(0) translate(4 242.8)">
<title>dependencies</title>
<polygon fill="white" stroke="transparent" points="-4,4 -4,-242.8 2458,-242.8 2458,4 -4,4"/>
<text text-anchor="middle" x="1227" y="-8.2" font-family="sans-serif" font-size="14.00">dependencies</text>
<g id="clust1" class="cluster">
<title>cluster_AppModule</title>
<polygon fill="none" stroke="black" stroke-dasharray="1,5" points="8,-32.8 8,-230.8 2446,-230.8 2446,-32.8 8,-32.8"/>
</g>
<g id="clust14" class="cluster">
<title>cluster_AppModule_imports</title>
<polygon fill="none" stroke="black" points="1716,-40.8 1716,-92.8 2438,-92.8 2438,-40.8 1716,-40.8"/>
</g>
<g id="clust16" class="cluster">
<title>cluster_AppModule_bootstrap</title>
<polygon fill="none" stroke="black" points="1051,-170.8 1051,-222.8 1175,-222.8 1175,-170.8 1051,-170.8"/>
</g>
<g id="clust2" class="cluster">
<title>cluster_AppModule_declarations</title>
<polygon fill="none" stroke="black" points="16,-40.8 16,-92.8 1708,-92.8 1708,-40.8 16,-40.8"/>
</g>
<!-- AppComponent -->
<g id="node1" class="node">
<title>AppComponent</title>
<polygon fill="#ffffb3" stroke="black" points="1699.94,-84.8 1594.06,-84.8 1594.06,-48.8 1699.94,-48.8 1699.94,-84.8"/>
<text text-anchor="middle" x="1647" y="-62.6" font-family="Times,serif" font-size="14.00">AppComponent</text>
</g>
<!-- AppModule -->
<g id="node12" class="node">
<title>AppModule</title>
<polygon fill="#8dd3c7" stroke="black" points="1154.66,-149.8 1151.66,-153.8 1130.66,-153.8 1127.66,-149.8 1071.34,-149.8 1071.34,-113.8 1154.66,-113.8 1154.66,-149.8"/>
<text text-anchor="middle" x="1113" y="-127.6" font-family="Times,serif" font-size="14.00">AppModule</text>
</g>
<!-- AppComponent&#45;&gt;AppModule -->
<g id="edge1" class="edge">
<title>AppComponent&#45;&gt;AppModule</title>
<path fill="none" stroke="black" d="M1647,-85.02C1647,-103.63 1647,-129.8 1647,-129.8 1647,-129.8 1164.9,-129.8 1164.9,-129.8"/>
<polygon fill="black" stroke="black" points="1164.9,-126.3 1154.9,-129.8 1164.9,-133.3 1164.9,-126.3"/>
</g>
<!-- ChangeBgDirective -->
<g id="node2" class="node">
<title>ChangeBgDirective</title>
<polygon fill="#ffffb3" stroke="black" points="1576.69,-84.8 1449.31,-84.8 1449.31,-48.8 1576.69,-48.8 1576.69,-84.8"/>
<text text-anchor="middle" x="1513" y="-62.6" font-family="Times,serif" font-size="14.00">ChangeBgDirective</text>
</g>
<!-- ChangeBgDirective&#45;&gt;AppModule -->
<g id="edge2" class="edge">
<title>ChangeBgDirective&#45;&gt;AppModule</title>
<path fill="none" stroke="black" d="M1513,-84.83C1513,-101.86 1513,-124.8 1513,-124.8 1513,-124.8 1164.68,-124.8 1164.68,-124.8"/>
<polygon fill="black" stroke="black" points="1164.68,-121.3 1154.68,-124.8 1164.67,-128.3 1164.68,-121.3"/>
</g>
<!-- ClassselectionComponent -->
<g id="node3" class="node">
<title>ClassselectionComponent</title>
<polygon fill="#ffffb3" stroke="black" points="1431.93,-84.8 1270.07,-84.8 1270.07,-48.8 1431.93,-48.8 1431.93,-84.8"/>
<text text-anchor="middle" x="1351" y="-62.6" font-family="Times,serif" font-size="14.00">ClassselectionComponent</text>
</g>
<!-- ClassselectionComponent&#45;&gt;AppModule -->
<g id="edge3" class="edge">
<title>ClassselectionComponent&#45;&gt;AppModule</title>
<path fill="none" stroke="black" d="M1351,-85.04C1351,-100.37 1351,-119.8 1351,-119.8 1351,-119.8 1164.73,-119.8 1164.73,-119.8"/>
<polygon fill="black" stroke="black" points="1164.73,-116.3 1154.73,-119.8 1164.73,-123.3 1164.73,-116.3"/>
</g>
<!-- CodepageComponent -->
<g id="node4" class="node">
<title>CodepageComponent</title>
<polygon fill="#ffffb3" stroke="black" points="1252.81,-84.8 1115.19,-84.8 1115.19,-48.8 1252.81,-48.8 1252.81,-84.8"/>
<text text-anchor="middle" x="1184" y="-62.6" font-family="Times,serif" font-size="14.00">CodepageComponent</text>
</g>
<!-- CodepageComponent&#45;&gt;AppModule -->
<g id="edge4" class="edge">
<title>CodepageComponent&#45;&gt;AppModule</title>
<path fill="none" stroke="black" d="M1135.09,-84.91C1135.09,-84.91 1135.09,-103.79 1135.09,-103.79"/>
<polygon fill="black" stroke="black" points="1131.59,-103.79 1135.09,-113.79 1138.59,-103.79 1131.59,-103.79"/>
</g>
<!-- CountDownPipe -->
<g id="node5" class="node">
<title>CountDownPipe</title>
<polygon fill="#ffffb3" stroke="black" points="1097.84,-84.8 988.16,-84.8 988.16,-48.8 1097.84,-48.8 1097.84,-84.8"/>
<text text-anchor="middle" x="1043" y="-62.6" font-family="Times,serif" font-size="14.00">CountDownPipe</text>
</g>
<!-- CountDownPipe&#45;&gt;AppModule -->
<g id="edge5" class="edge">
<title>CountDownPipe&#45;&gt;AppModule</title>
<path fill="none" stroke="black" d="M1084.42,-84.91C1084.42,-84.91 1084.42,-103.79 1084.42,-103.79"/>
<polygon fill="black" stroke="black" points="1080.92,-103.79 1084.42,-113.79 1087.92,-103.79 1080.92,-103.79"/>
</g>
<!-- ExerciseComponent -->
<g id="node6" class="node">
<title>ExerciseComponent</title>
<polygon fill="#ffffb3" stroke="black" points="970.53,-84.8 841.47,-84.8 841.47,-48.8 970.53,-48.8 970.53,-84.8"/>
<text text-anchor="middle" x="906" y="-62.6" font-family="Times,serif" font-size="14.00">ExerciseComponent</text>
</g>
<!-- ExerciseComponent&#45;&gt;AppModule -->
<g id="edge6" class="edge">
<title>ExerciseComponent&#45;&gt;AppModule</title>
<path fill="none" stroke="black" d="M906,-85.04C906,-100.37 906,-119.8 906,-119.8 906,-119.8 1061.11,-119.8 1061.11,-119.8"/>
<polygon fill="black" stroke="black" points="1061.11,-123.3 1071.11,-119.8 1061.11,-116.3 1061.11,-123.3"/>
</g>
<!-- LoadingpageComponent -->
<g id="node7" class="node">
<title>LoadingpageComponent</title>
<polygon fill="#ffffb3" stroke="black" points="823.41,-84.8 668.59,-84.8 668.59,-48.8 823.41,-48.8 823.41,-84.8"/>
<text text-anchor="middle" x="746" y="-62.6" font-family="Times,serif" font-size="14.00">LoadingpageComponent</text>
</g>
<!-- LoadingpageComponent&#45;&gt;AppModule -->
<g id="edge7" class="edge">
<title>LoadingpageComponent&#45;&gt;AppModule</title>
<path fill="none" stroke="black" d="M746,-84.83C746,-101.86 746,-124.8 746,-124.8 746,-124.8 1061.26,-124.8 1061.26,-124.8"/>
<polygon fill="black" stroke="black" points="1061.26,-128.3 1071.26,-124.8 1061.26,-121.3 1061.26,-128.3"/>
</g>
<!-- PuzzleComponent -->
<g id="node8" class="node">
<title>PuzzleComponent</title>
<polygon fill="#ffffb3" stroke="black" points="650.15,-84.8 531.85,-84.8 531.85,-48.8 650.15,-48.8 650.15,-84.8"/>
<text text-anchor="middle" x="591" y="-62.6" font-family="Times,serif" font-size="14.00">PuzzleComponent</text>
</g>
<!-- PuzzleComponent&#45;&gt;AppModule -->
<g id="edge8" class="edge">
<title>PuzzleComponent&#45;&gt;AppModule</title>
<path fill="none" stroke="black" d="M591,-85.02C591,-103.63 591,-129.8 591,-129.8 591,-129.8 1061.16,-129.8 1061.16,-129.8"/>
<polygon fill="black" stroke="black" points="1061.16,-133.3 1071.16,-129.8 1061.16,-126.3 1061.16,-133.3"/>
</g>
<!-- PuzzleresultpageComponent -->
<g id="node9" class="node">
<title>PuzzleresultpageComponent</title>
<polygon fill="#ffffb3" stroke="black" points="514.18,-84.8 337.82,-84.8 337.82,-48.8 514.18,-48.8 514.18,-84.8"/>
<text text-anchor="middle" x="426" y="-62.6" font-family="Times,serif" font-size="14.00">PuzzleresultpageComponent</text>
</g>
<!-- PuzzleresultpageComponent&#45;&gt;AppModule -->
<g id="edge9" class="edge">
<title>PuzzleresultpageComponent&#45;&gt;AppModule</title>
<path fill="none" stroke="black" d="M426,-85.02C426,-105.17 426,-134.8 426,-134.8 426,-134.8 1061.32,-134.8 1061.32,-134.8"/>
<polygon fill="black" stroke="black" points="1061.32,-138.3 1071.32,-134.8 1061.32,-131.3 1061.32,-138.3"/>
</g>
<!-- ResultpageComponent -->
<g id="node10" class="node">
<title>ResultpageComponent</title>
<polygon fill="#ffffb3" stroke="black" points="319.54,-84.8 176.46,-84.8 176.46,-48.8 319.54,-48.8 319.54,-84.8"/>
<text text-anchor="middle" x="248" y="-62.6" font-family="Times,serif" font-size="14.00">ResultpageComponent</text>
</g>
<!-- ResultpageComponent&#45;&gt;AppModule -->
<g id="edge10" class="edge">
<title>ResultpageComponent&#45;&gt;AppModule</title>
<path fill="none" stroke="black" d="M248,-84.84C248,-106.46 248,-139.8 248,-139.8 248,-139.8 1061.28,-139.8 1061.28,-139.8"/>
<polygon fill="black" stroke="black" points="1061.28,-143.3 1071.28,-139.8 1061.28,-136.3 1061.28,-143.3"/>
</g>
<!-- StartpageComponent -->
<g id="node11" class="node">
<title>StartpageComponent</title>
<polygon fill="#ffffb3" stroke="black" points="158.2,-84.8 23.8,-84.8 23.8,-48.8 158.2,-48.8 158.2,-84.8"/>
<text text-anchor="middle" x="91" y="-62.6" font-family="Times,serif" font-size="14.00">StartpageComponent</text>
</g>
<!-- StartpageComponent&#45;&gt;AppModule -->
<g id="edge11" class="edge">
<title>StartpageComponent&#45;&gt;AppModule</title>
<path fill="none" stroke="black" d="M91,-84.89C91,-107.93 91,-144.8 91,-144.8 91,-144.8 1061.03,-144.8 1061.03,-144.8"/>
<polygon fill="black" stroke="black" points="1061.03,-148.3 1071.03,-144.8 1061.03,-141.3 1061.03,-148.3"/>
</g>
<!-- AppComponent  -->
<g id="node16" class="node">
<title>AppComponent </title>
<polygon fill="#80b1d3" stroke="black" points="1167.44,-214.8 1058.56,-214.8 1058.56,-178.8 1167.44,-178.8 1167.44,-214.8"/>
<text text-anchor="middle" x="1113" y="-192.6" font-family="Times,serif" font-size="14.00">AppComponent </text>
</g>
<!-- AppModule&#45;&gt;AppComponent  -->
<g id="edge15" class="edge">
<title>AppModule&#45;&gt;AppComponent </title>
<path fill="none" stroke="black" stroke-dasharray="1,5" d="M1113,-149.91C1113,-149.91 1113,-168.79 1113,-168.79"/>
<polygon fill="black" stroke="black" points="1109.5,-168.79 1113,-178.79 1116.5,-168.79 1109.5,-168.79"/>
</g>
<!-- AppRoutingModule -->
<g id="node13" class="node">
<title>AppRoutingModule</title>
<polygon fill="#8dd3c7" stroke="black" points="2430.28,-84.8 2427.28,-88.8 2406.28,-88.8 2403.28,-84.8 2301.72,-84.8 2301.72,-48.8 2430.28,-48.8 2430.28,-84.8"/>
<text text-anchor="middle" x="2366" y="-62.6" font-family="Times,serif" font-size="14.00">AppRoutingModule</text>
</g>
<!-- AppRoutingModule&#45;&gt;AppModule -->
<g id="edge12" class="edge">
<title>AppRoutingModule&#45;&gt;AppModule</title>
<path fill="none" stroke="black" d="M2366,-84.89C2366,-107.93 2366,-144.8 2366,-144.8 2366,-144.8 1164.69,-144.8 1164.69,-144.8"/>
<polygon fill="black" stroke="black" points="1164.69,-141.3 1154.69,-144.8 1164.69,-148.3 1164.69,-141.3"/>
</g>
<!-- provideFirebaseApp(() =&gt; initializeApp(environment -->
<g id="node14" class="node">
<title>provideFirebaseApp(() =&gt; initializeApp(environment</title>
<polygon fill="#8dd3c7" stroke="black" points="2283.59,-84.8 2280.59,-88.8 2259.59,-88.8 2256.59,-84.8 1968.41,-84.8 1968.41,-48.8 2283.59,-48.8 2283.59,-84.8"/>
<text text-anchor="middle" x="2126" y="-62.6" font-family="Times,serif" font-size="14.00">provideFirebaseApp(() =&gt; initializeApp(environment</text>
</g>
<!-- provideFirebaseApp(() =&gt; initializeApp(environment&#45;&gt;AppModule -->
<g id="edge13" class="edge">
<title>provideFirebaseApp(() =&gt; initializeApp(environment&#45;&gt;AppModule</title>
<path fill="none" stroke="black" d="M2126,-84.84C2126,-106.46 2126,-139.8 2126,-139.8 2126,-139.8 1164.92,-139.8 1164.92,-139.8"/>
<polygon fill="black" stroke="black" points="1164.92,-136.3 1154.92,-139.8 1164.92,-143.3 1164.92,-136.3"/>
</g>
<!-- provideFirestore(() =&gt; getFirestore()) -->
<g id="node15" class="node">
<title>provideFirestore(() =&gt; getFirestore())</title>
<polygon fill="#8dd3c7" stroke="black" points="1950.16,-84.8 1947.16,-88.8 1926.16,-88.8 1923.16,-84.8 1723.84,-84.8 1723.84,-48.8 1950.16,-48.8 1950.16,-84.8"/>
<text text-anchor="middle" x="1837" y="-62.6" font-family="Times,serif" font-size="14.00">provideFirestore(() =&gt; getFirestore())</text>
</g>
<!-- provideFirestore(() =&gt; getFirestore())&#45;&gt;AppModule -->
<g id="edge14" class="edge">
<title>provideFirestore(() =&gt; getFirestore())&#45;&gt;AppModule</title>
<path fill="none" stroke="black" d="M1837,-85.02C1837,-105.17 1837,-134.8 1837,-134.8 1837,-134.8 1164.79,-134.8 1164.79,-134.8"/>
<polygon fill="black" stroke="black" points="1164.79,-131.3 1154.79,-134.8 1164.79,-138.3 1164.79,-131.3"/>
</g>
</g>
</svg>
