<?xml version="1.0" encoding="UTF-8" standalone="no"?>
<!DOCTYPE svg PUBLIC "-//W3C//DTD SVG 1.1//EN"
 "http://www.w3.org/Graphics/SVG/1.1/DTD/svg11.dtd">
<!-- Generated by graphviz version 5.0.0 (20220707.1540)
 -->
<!-- Title: dependencies Pages: 1 -->
<svg width="2462pt" height="247pt"
 viewBox="0.00 0.00 2462.00 246.80" xmlns="http://www.w3.org/2000/svg" xmlns:xlink="http://www.w3.org/1999/xlink">
<g id="graph0" class="graph" transform="scale(1 1) rotate(0) translate(4 242.8)">
<title>dependencies</title>
<polygon fill="white" stroke="transparent" points="-4,4 -4,-242.8 2458,-242.8 2458,4 -4,4"/>
<text text-anchor="middle" x="1227" y="-8.2" font-family="sans-serif" font-size="14.00">dependencies</text>
<g id="clust1" class="cluster">
<title>cluster_AppModule</title>
<polygon fill="none" stroke="black" stroke-dasharray="1,5" points="8,-32.8 8,-230.8 2446,-230.8 2446,-32.8 8,-32.8"/>
</g>
<g id="clust2" class="cluster">
<title>cluster_AppModule_declarations</title>
<polygon fill="none" stroke="black" points="746,-40.8 746,-92.8 2438,-92.8 2438,-40.8 746,-40.8"/>
</g>
<g id="clust14" class="cluster">
<title>cluster_AppModule_imports</title>
<polygon fill="none" stroke="black" points="16,-40.8 16,-92.8 738,-92.8 738,-40.8 16,-40.8"/>
</g>
<g id="clust16" class="cluster">
<title>cluster_AppModule_bootstrap</title>
<polygon fill="none" stroke="black" points="1336,-170.8 1336,-222.8 1460,-222.8 1460,-170.8 1336,-170.8"/>
</g>
<!-- AppComponent -->
<g id="node1" class="node">
<title>AppComponent</title>
<polygon fill="#ffffb3" stroke="black" points="2429.94,-84.8 2324.06,-84.8 2324.06,-48.8 2429.94,-48.8 2429.94,-84.8"/>
<text text-anchor="middle" x="2377" y="-62.6" font-family="Times,serif" font-size="14.00">AppComponent</text>
</g>
<!-- AppModule -->
<g id="node12" class="node">
<title>AppModule</title>
<polygon fill="#8dd3c7" stroke="black" points="1439.66,-149.8 1436.66,-153.8 1415.66,-153.8 1412.66,-149.8 1356.34,-149.8 1356.34,-113.8 1439.66,-113.8 1439.66,-149.8"/>
<text text-anchor="middle" x="1398" y="-127.6" font-family="Times,serif" font-size="14.00">AppModule</text>
</g>
<!-- AppComponent&#45;&gt;AppModule -->
<g id="edge1" class="edge">
<title>AppComponent&#45;&gt;AppModule</title>
<path fill="none" stroke="black" d="M2377,-84.89C2377,-107.93 2377,-144.8 2377,-144.8 2377,-144.8 1449.75,-144.8 1449.75,-144.8"/>
<polygon fill="black" stroke="black" points="1449.75,-141.3 1439.75,-144.8 1449.75,-148.3 1449.75,-141.3"/>
</g>
<!-- ChangeBgDirective -->
<g id="node2" class="node">
<title>ChangeBgDirective</title>
<polygon fill="#ffffb3" stroke="black" points="2306.69,-84.8 2179.31,-84.8 2179.31,-48.8 2306.69,-48.8 2306.69,-84.8"/>
<text text-anchor="middle" x="2243" y="-62.6" font-family="Times,serif" font-size="14.00">ChangeBgDirective</text>
</g>
<!-- ChangeBgDirective&#45;&gt;AppModule -->
<g id="edge2" class="edge">
<title>ChangeBgDirective&#45;&gt;AppModule</title>
<path fill="none" stroke="black" d="M2243,-84.84C2243,-106.46 2243,-139.8 2243,-139.8 2243,-139.8 1449.9,-139.8 1449.9,-139.8"/>
<polygon fill="black" stroke="black" points="1449.9,-136.3 1439.9,-139.8 1449.9,-143.3 1449.9,-136.3"/>
</g>
<!-- ClassselectionComponent -->
<g id="node3" class="node">
<title>ClassselectionComponent</title>
<polygon fill="#ffffb3" stroke="black" points="2161.93,-84.8 2000.07,-84.8 2000.07,-48.8 2161.93,-48.8 2161.93,-84.8"/>
<text text-anchor="middle" x="2081" y="-62.6" font-family="Times,serif" font-size="14.00">ClassselectionComponent</text>
</g>
<!-- ClassselectionComponent&#45;&gt;AppModule -->
<g id="edge3" class="edge">
<title>ClassselectionComponent&#45;&gt;AppModule</title>
<path fill="none" stroke="black" d="M2081,-85.02C2081,-105.17 2081,-134.8 2081,-134.8 2081,-134.8 1449.7,-134.8 1449.7,-134.8"/>
<polygon fill="black" stroke="black" points="1449.7,-131.3 1439.7,-134.8 1449.7,-138.3 1449.7,-131.3"/>
</g>
<!-- CodepageComponent -->
<g id="node4" class="node">
<title>CodepageComponent</title>
<polygon fill="#ffffb3" stroke="black" points="1982.81,-84.8 1845.19,-84.8 1845.19,-48.8 1982.81,-48.8 1982.81,-84.8"/>
<text text-anchor="middle" x="1914" y="-62.6" font-family="Times,serif" font-size="14.00">CodepageComponent</text>
</g>
<!-- CodepageComponent&#45;&gt;AppModule -->
<g id="edge4" class="edge">
<title>CodepageComponent&#45;&gt;AppModule</title>
<path fill="none" stroke="black" d="M1914,-85.02C1914,-103.63 1914,-129.8 1914,-129.8 1914,-129.8 1449.79,-129.8 1449.79,-129.8"/>
<polygon fill="black" stroke="black" points="1449.79,-126.3 1439.79,-129.8 1449.79,-133.3 1449.79,-126.3"/>
</g>
<!-- CountDownPipe -->
<g id="node5" class="node">
<title>CountDownPipe</title>
<polygon fill="#ffffb3" stroke="black" points="1827.84,-84.8 1718.16,-84.8 1718.16,-48.8 1827.84,-48.8 1827.84,-84.8"/>
<text text-anchor="middle" x="1773" y="-62.6" font-family="Times,serif" font-size="14.00">CountDownPipe</text>
</g>
<!-- CountDownPipe&#45;&gt;AppModule -->
<g id="edge5" class="edge">
<title>CountDownPipe&#45;&gt;AppModule</title>
<path fill="none" stroke="black" d="M1773,-84.83C1773,-101.86 1773,-124.8 1773,-124.8 1773,-124.8 1449.93,-124.8 1449.93,-124.8"/>
<polygon fill="black" stroke="black" points="1449.93,-121.3 1439.93,-124.8 1449.93,-128.3 1449.93,-121.3"/>
</g>
<!-- ExerciseComponent -->
<g id="node6" class="node">
<title>ExerciseComponent</title>
<polygon fill="#ffffb3" stroke="black" points="1700.53,-84.8 1571.47,-84.8 1571.47,-48.8 1700.53,-48.8 1700.53,-84.8"/>
<text text-anchor="middle" x="1636" y="-62.6" font-family="Times,serif" font-size="14.00">ExerciseComponent</text>
</g>
<!-- ExerciseComponent&#45;&gt;AppModule -->
<g id="edge6" class="edge">
<title>ExerciseComponent&#45;&gt;AppModule</title>
<path fill="none" stroke="black" d="M1636,-85.04C1636,-100.37 1636,-119.8 1636,-119.8 1636,-119.8 1449.73,-119.8 1449.73,-119.8"/>
<polygon fill="black" stroke="black" points="1449.73,-116.3 1439.73,-119.8 1449.73,-123.3 1449.73,-116.3"/>
</g>
<!-- LoadingpageComponent -->
<g id="node7" class="node">
<title>LoadingpageComponent</title>
<polygon fill="#ffffb3" stroke="black" points="1553.41,-84.8 1398.59,-84.8 1398.59,-48.8 1553.41,-48.8 1553.41,-84.8"/>
<text text-anchor="middle" x="1476" y="-62.6" font-family="Times,serif" font-size="14.00">LoadingpageComponent</text>
</g>
<!-- LoadingpageComponent&#45;&gt;AppModule -->
<g id="edge7" class="edge">
<title>LoadingpageComponent&#45;&gt;AppModule</title>
<path fill="none" stroke="black" d="M1419.31,-84.91C1419.31,-84.91 1419.31,-103.79 1419.31,-103.79"/>
<polygon fill="black" stroke="black" points="1415.81,-103.79 1419.31,-113.79 1422.81,-103.79 1415.81,-103.79"/>
</g>
<!-- PuzzleComponent -->
<g id="node8" class="node">
<title>PuzzleComponent</title>
<polygon fill="#ffffb3" stroke="black" points="1380.15,-84.8 1261.85,-84.8 1261.85,-48.8 1380.15,-48.8 1380.15,-84.8"/>
<text text-anchor="middle" x="1321" y="-62.6" font-family="Times,serif" font-size="14.00">PuzzleComponent</text>
</g>
<!-- PuzzleComponent&#45;&gt;AppModule -->
<g id="edge8" class="edge">
<title>PuzzleComponent&#45;&gt;AppModule</title>
<path fill="none" stroke="black" d="M1368.25,-84.91C1368.25,-84.91 1368.25,-103.79 1368.25,-103.79"/>
<polygon fill="black" stroke="black" points="1364.75,-103.79 1368.25,-113.79 1371.75,-103.79 1364.75,-103.79"/>
</g>
<!-- PuzzleresultpageComponent -->
<g id="node9" class="node">
<title>PuzzleresultpageComponent</title>
<polygon fill="#ffffb3" stroke="black" points="1244.18,-84.8 1067.82,-84.8 1067.82,-48.8 1244.18,-48.8 1244.18,-84.8"/>
<text text-anchor="middle" x="1156" y="-62.6" font-family="Times,serif" font-size="14.00">PuzzleresultpageComponent</text>
</g>
<!-- PuzzleresultpageComponent&#45;&gt;AppModule -->
<g id="edge9" class="edge">
<title>PuzzleresultpageComponent&#45;&gt;AppModule</title>
<path fill="none" stroke="black" d="M1156,-85.04C1156,-100.37 1156,-119.8 1156,-119.8 1156,-119.8 1346.12,-119.8 1346.12,-119.8"/>
<polygon fill="black" stroke="black" points="1346.12,-123.3 1356.12,-119.8 1346.12,-116.3 1346.12,-123.3"/>
</g>
<!-- ResultpageComponent -->
<g id="node10" class="node">
<title>ResultpageComponent</title>
<polygon fill="#ffffb3" stroke="black" points="1049.54,-84.8 906.46,-84.8 906.46,-48.8 1049.54,-48.8 1049.54,-84.8"/>
<text text-anchor="middle" x="978" y="-62.6" font-family="Times,serif" font-size="14.00">ResultpageComponent</text>
</g>
<!-- ResultpageComponent&#45;&gt;AppModule -->
<g id="edge10" class="edge">
<title>ResultpageComponent&#45;&gt;AppModule</title>
<path fill="none" stroke="black" d="M978,-84.83C978,-101.86 978,-124.8 978,-124.8 978,-124.8 1346.19,-124.8 1346.19,-124.8"/>
<polygon fill="black" stroke="black" points="1346.19,-128.3 1356.19,-124.8 1346.19,-121.3 1346.19,-128.3"/>
</g>
<!-- StartpageComponent -->
<g id="node11" class="node">
<title>StartpageComponent</title>
<polygon fill="#ffffb3" stroke="black" points="888.2,-84.8 753.8,-84.8 753.8,-48.8 888.2,-48.8 888.2,-84.8"/>
<text text-anchor="middle" x="821" y="-62.6" font-family="Times,serif" font-size="14.00">StartpageComponent</text>
</g>
<!-- StartpageComponent&#45;&gt;AppModule -->
<g id="edge11" class="edge">
<title>StartpageComponent&#45;&gt;AppModule</title>
<path fill="none" stroke="black" d="M821,-85.02C821,-103.63 821,-129.8 821,-129.8 821,-129.8 1346.04,-129.8 1346.04,-129.8"/>
<polygon fill="black" stroke="black" points="1346.04,-133.3 1356.04,-129.8 1346.04,-126.3 1346.04,-133.3"/>
</g>
<!-- AppComponent  -->
<g id="node16" class="node">
<title>AppComponent </title>
<polygon fill="#80b1d3" stroke="black" points="1452.44,-214.8 1343.56,-214.8 1343.56,-178.8 1452.44,-178.8 1452.44,-214.8"/>
<text text-anchor="middle" x="1398" y="-192.6" font-family="Times,serif" font-size="14.00">AppComponent </text>
</g>
<!-- AppModule&#45;&gt;AppComponent  -->
<g id="edge15" class="edge">
<title>AppModule&#45;&gt;AppComponent </title>
<path fill="none" stroke="black" stroke-dasharray="1,5" d="M1398,-149.91C1398,-149.91 1398,-168.79 1398,-168.79"/>
<polygon fill="black" stroke="black" points="1394.5,-168.79 1398,-178.79 1401.5,-168.79 1394.5,-168.79"/>
</g>
<!-- AppRoutingModule -->
<g id="node13" class="node">
<title>AppRoutingModule</title>
<polygon fill="#8dd3c7" stroke="black" points="730.28,-84.8 727.28,-88.8 706.28,-88.8 703.28,-84.8 601.72,-84.8 601.72,-48.8 730.28,-48.8 730.28,-84.8"/>
<text text-anchor="middle" x="666" y="-62.6" font-family="Times,serif" font-size="14.00">AppRoutingModule</text>
</g>
<!-- AppRoutingModule&#45;&gt;AppModule -->
<g id="edge12" class="edge">
<title>AppRoutingModule&#45;&gt;AppModule</title>
<path fill="none" stroke="black" d="M666,-85.02C666,-105.17 666,-134.8 666,-134.8 666,-134.8 1346.28,-134.8 1346.28,-134.8"/>
<polygon fill="black" stroke="black" points="1346.28,-138.3 1356.28,-134.8 1346.28,-131.3 1346.28,-138.3"/>
</g>
<!-- provideFirebaseApp(() =&gt; initializeApp(environment -->
<g id="node14" class="node">
<title>provideFirebaseApp(() =&gt; initializeApp(environment</title>
<polygon fill="#8dd3c7" stroke="black" points="583.59,-84.8 580.59,-88.8 559.59,-88.8 556.59,-84.8 268.41,-84.8 268.41,-48.8 583.59,-48.8 583.59,-84.8"/>
<text text-anchor="middle" x="426" y="-62.6" font-family="Times,serif" font-size="14.00">provideFirebaseApp(() =&gt; initializeApp(environment</text>
</g>
<!-- provideFirebaseApp(() =&gt; initializeApp(environment&#45;&gt;AppModule -->
<g id="edge13" class="edge">
<title>provideFirebaseApp(() =&gt; initializeApp(environment&#45;&gt;AppModule</title>
<path fill="none" stroke="black" d="M426,-84.84C426,-106.46 426,-139.8 426,-139.8 426,-139.8 1346.23,-139.8 1346.23,-139.8"/>
<polygon fill="black" stroke="black" points="1346.23,-143.3 1356.23,-139.8 1346.23,-136.3 1346.23,-143.3"/>
</g>
<!-- provideFirestore(() =&gt; getFirestore()) -->
<g id="node15" class="node">
<title>provideFirestore(() =&gt; getFirestore())</title>
<polygon fill="#8dd3c7" stroke="black" points="250.16,-84.8 247.16,-88.8 226.16,-88.8 223.16,-84.8 23.84,-84.8 23.84,-48.8 250.16,-48.8 250.16,-84.8"/>
<text text-anchor="middle" x="137" y="-62.6" font-family="Times,serif" font-size="14.00">provideFirestore(() =&gt; getFirestore())</text>
</g>
<!-- provideFirestore(() =&gt; getFirestore())&#45;&gt;AppModule -->
<g id="edge14" class="edge">
<title>provideFirestore(() =&gt; getFirestore())&#45;&gt;AppModule</title>
<path fill="none" stroke="black" d="M137,-84.89C137,-107.93 137,-144.8 137,-144.8 137,-144.8 1346.04,-144.8 1346.04,-144.8"/>
<polygon fill="black" stroke="black" points="1346.04,-148.3 1356.04,-144.8 1346.04,-141.3 1346.04,-148.3"/>
</g>
</g>
</svg>
